<svg xmlns="http://www.w3.org/2000/svg" width="32" height="32" viewBox="0 0 32 32" fill="none">
  <!-- Stacked memory layers  black silhouette for macOS template icon -->
  <path fill="#000000" d="M6 10.5c0-1.1.9-2 2-2h16c1.1 0 2 .9 2 2v2H6v-2z"/>
  <path fill="#000000" d="M5 14.5c0-1.1.9-2 2-2h18c1.1 0 2 .9 2 2v2.5H5V14.5z"/>
  <path fill="#000000" fill-rule="evenodd" clip-rule="evenodd" d="M4 19.5c0-1.1.9-2 2-2h20c1.1 0 2 .9 2 2v4.5c0 1.1-.9 2-2 2H6c-1.1 0-2-.9-2-2V19.5zm4 2.25a.75.75 0 0 1 .75-.75h6.5a.75.75 0 0 1 0 1.5h-6.5a.75.75 0 0 1-.75-.75zm0 2.5a.75.75 0 0 1 .75-.75h9.5a.75.75 0 0 1 0 1.5h-9.5a.75.75 0 0 1-.75-.75z"/>
</svg>
